# xmcd
#
# Track frame offsets:
#	150
#	22105
#	44504
#	69528
#	83193
#	106111
#	131060
#	150277
#	199231
#	227189
#	258097
#
# Disc length: 3799 seconds
#
# Revision: 0
# Processed by: cddbd v1.5.1PL0 Copyright (c) Steve Scherf et al.
# Submitted via: dBpowerAMP V4.0
#
DISCID=8e0ed50b
DTITLE=Malted Milk - Easy Baby
DYEAR=2005
DGENRE=Blues
TTITLE0=Always on my mind 
TTITLE1=Easy Baby 
TTITLE2=32-20 Blues
TTITLE3=Amelia Island
TTITLE4=I wanna get funky
TTITLE5=I'm not commin'over
TTITLE6=I got something to do
TTITLE7=As the tears goes passing by
TTITLE8=It's all your fault
TTITLE9=Breakin'up somebody's home
TTITLE10=Don't ever let nobody drag your spirit down
EXTD=French blues band, very cool guys !
EXTT0=
EXTT1=
EXTT2=
EXTT3=
EXTT4=
EXTT5=
EXTT6=
EXTT7=
EXTT8=
EXTT9=
EXTT10=
PLAYORDER=
